<?xml version="1.0" encoding="UTF-8" standalone="no"?><!-- Generator: Gravit.io --><svg xmlns="http://www.w3.org/2000/svg" xmlns:xlink="http://www.w3.org/1999/xlink" style="isolation:isolate" viewBox="948 352.06 159 159" width="159pt" height="159pt"><defs><clipPath id="_clipPath_X38t9iMJlVb3jqdOGqblUqH005yiXmjd"><rect x="948" y="352.06" width="159" height="159"/></clipPath></defs><g clip-path="url(#_clipPath_X38t9iMJlVb3jqdOGqblUqH005yiXmjd)"><g><g><g><path d=" M 1010.798 421.72 C 1000.907 433.398 1001.469 450.931 1012.483 461.945 C 1024.088 473.55 1042.933 473.55 1054.538 461.945 C 1065.633 450.851 1066.121 433.141 1056.004 421.464" fill="none" vector-effect="non-scaling-stroke" stroke-width="6" stroke="rgb(0,0,0)" stroke-linejoin="miter" stroke-linecap="square" stroke-miterlimit="3"/><path d=" M 1012.657 462.119 L 1020.605 465.987 L 1014.831 467.707 L 1001.716 480.822 Q 998.182 483.233 995.941 482.541 C 993.701 481.849 992.497 480.464 991.886 478.486 Q 991.275 476.508 993.606 472.712 L 1006.721 459.597 L 1008.441 453.822 L 1012.657 462.119 Z " fill="rgb(0,0,0)"/></g><path d=" M 1031.494 370.248 C 1040.797 381.815 1035.542 401.094 1034.978 406.479 C 1034.471 411.326 1035.091 416.13 1031.494 414.423 C 1027.897 412.716 1027.833 409.662 1031.494 402.952 C 1033.063 400.076 1048.111 381.728 1031.494 370.248 Z " fill="rgb(0,0,0)"/><path d=" M 1018.506 416.108 C 1016.809 415.79 1016.661 414.911 1018.484 409.505 Q 1021.774 399.75 1016.57 394.365 Q 1020.354 406.401 1020.398 407.831 C 1020.563 413.247 1020.203 416.426 1018.506 416.108 Z " fill="rgb(0,0,0)"/><path d=" M 1046.105 389.328 C 1045.695 396.008 1048.324 400.139 1050.041 406.642 Q 1052.044 414.226 1046.105 416.13 Q 1049.06 403.612 1047.104 400.781 C 1045.86 398.98 1046.718 393.339 1046.105 389.328 Z " fill="rgb(0,0,0)"/><g><path d=" M 1021.345 430.533 C 1021.192 430.75 1021.074 430.957 1020.965 431.186 C 1018.992 435.339 1022.749 443.216 1028.438 449.764 C 1033.073 455.098 1039.923 459.791 1045.546 455.474 C 1045.709 455.348 1045.886 455.242 1046.032 455.075 C 1044.833 451.841 1044.74 448.592 1040.255 447.678 C 1035.771 446.765 1039.815 444.23 1034.347 442.465 C 1028.878 440.699 1033.127 438.253 1028.981 437.133 C 1024.835 436.012 1026.301 433.295 1024.615 432.733 C 1022.929 432.171 1021.499 430.314 1021.345 430.533 Z " fill="rgb(0,0,0)"/><path d=" M 1030.393 436.24 C 1034.668 437.207 1032.084 440.56 1035.8 441.318 C 1041.548 442.49 1036.952 446.098 1041.698 446.983 C 1046.445 447.868 1046.815 454.327 1046.974 454.158 C 1047.128 453.996 1047.265 453.845 1047.403 453.69 C 1053.318 446.978 1048.799 441.232 1042.676 435.526 C 1036.478 429.75 1027.846 427.264 1023.483 428.926 C 1023.157 429.05 1022.878 429.179 1022.579 429.369 C 1022.297 429.546 1023.292 431.302 1024.932 431.721 C 1028.051 432.52 1026.118 435.272 1030.393 436.24 Z " fill="rgb(0,0,0)"/></g></g><rect x="948" y="352.06" width="159" height="159" transform="matrix(1,0,0,1,0,0)" fill="none"/></g></g></svg>