<?xml version="1.0" encoding="UTF-8" standalone="no"?><!-- Generator: Gravit.io --><svg xmlns="http://www.w3.org/2000/svg" xmlns:xlink="http://www.w3.org/1999/xlink" style="isolation:isolate" viewBox="-273 -569 2019.555 1452.556" width="2019.555pt" height="1452.556pt"><defs><clipPath id="_clipPath_jbwMN9mY96zZ2O7ZlMloXnkk65qRQ8fG"><rect x="-273" y="-569" width="2019.555" height="1452.556"/></clipPath></defs><g clip-path="url(#_clipPath_jbwMN9mY96zZ2O7ZlMloXnkk65qRQ8fG)"><g><path d=" M -160.398 351.339 C -104.318 324.896 33.356 372.345 73.075 533.748 C 109.56 682.014 18.749 742.563 -41.23 726.521 C -98.669 711.158 -161.148 655.017 -192.014 602.151 C -213.329 565.645 -242.741 390.167 -160.398 351.339 L -160.398 351.339 L -160.398 351.339 L -160.398 351.339 L -160.398 351.339 L -160.398 351.339 L -160.398 351.339 L -160.398 351.339 L -160.398 351.339 L -160.398 351.339 L -160.398 351.339 Z  M 124.147 -226.979 C 220.589 -259.542 533.583 -27.665 605.685 210.387 C 650.725 359.092 635.333 463.681 583.797 637.389 C 566.635 695.237 499.018 776.647 369.78 637.389 C 240.542 498.131 30.192 382.465 4.979 171.003 C -24.155 -73.337 34.389 -196.673 124.147 -226.979 L 124.147 -226.979 L 124.147 -226.979 L 124.147 -226.979 L 124.147 -226.979 L 124.147 -226.979 L 124.147 -226.979 L 124.147 -226.979 L 124.147 -226.979 Z  M 758.901 34.197 C 821.696 -9.73 930.52 1.772 994.806 69.435 C 1059.093 137.098 1141.225 161.255 1089.655 214.533 C 1038.084 267.811 1043.76 323.306 963.19 309.883 C 882.62 296.46 835.633 333.017 792.95 299.519 C 750.266 266.02 732.826 233.831 739.445 191.732 C 746.065 149.632 696.107 78.124 758.901 34.197 L 758.901 34.197 L 758.901 34.197 L 758.901 34.197 L 758.901 34.197 L 758.901 34.197 L 758.901 34.197 Z  M 717.557 -235.271 C 757.639 -292.261 819.809 -342.841 812.406 -407.315 C 805.003 -471.789 746.011 -489.594 678.645 -492.301 C 583.088 -496.141 225.051 -385.753 301.684 -295.383 C 333.155 -258.27 380.286 -237.1 445.172 -164.795 C 506.762 -96.162 548.895 -35.211 612.981 -52.862 C 677.067 -70.513 678.837 -180.215 717.557 -235.271 L 717.557 -235.271 L 717.557 -235.271 L 717.557 -235.271 L 717.557 -235.271 Z  M 1021.558 -372.077 C 1072.839 -395.532 1201.994 -461.431 1279.351 -297.455 C 1318.541 -214.383 1293.311 -77.918 1211.255 -7.26 C 1145.665 49.22 1032.97 5.212 968.054 -15.551 C 845.437 -54.77 793.244 -126.822 831.862 -168.94 C 924.904 -270.416 942.552 -335.941 1021.558 -372.077 L 1021.558 -372.077 L 1021.558 -372.077 Z  M -216.428 703.724 C -94.221 881.076 33.742 914.447 255.382 859.186 C 1164.96 689.996 417.571 468.314 1507.867 289.159 C 2089.07 193.657 1497.182 -571.08 921.752 -568.991 C 345.388 -566.899 -10.363 -337.687 -216.428 171.008 C -275.761 307.903 -306.412 573.136 -216.428 703.724 L -216.428 703.724 L -216.428 703.724 L -216.428 703.724 L -216.428 703.724 L -216.428 703.724 L -216.428 703.724 L -216.428 703.724 L -216.428 703.724 L -216.428 703.724 L -216.428 703.724 Z  M 1388.792 -112.974 C 1426.817 -166.134 1477.962 -177.706 1512.824 -166.867 C 1579.705 -146.075 1620.495 -75.807 1634.425 -13.478 C 1649.181 52.547 1621.276 135.906 1556.6 158.566 C 1464.711 190.763 1386.496 155.072 1364.472 108.819 C 1330.057 36.547 1335.696 -38.745 1388.792 -112.974 Z " fill-rule="evenodd" fill="rgb(150,170,255)"/><path d=" M -14.501 121.256 C 69.756 108.651 192.571 217.69 228.69 382.432 C 258.683 519.238 152.135 726.29 41.433 722.375 C -47.007 719.248 -132.821 629.852 -160.416 500.583 C -178.714 414.866 -140.526 140.108 -14.501 121.256 L -14.501 121.256 L -14.501 121.256 L -14.501 121.256 L -14.501 121.256 L -14.501 121.256 L -14.501 121.256 L -14.501 121.256 L -14.501 121.256 Z  M 430.539 -204.178 C 517.661 -193.069 609.043 -167.223 698.049 -104.683 C 796.295 -35.649 696.173 -6.604 632.387 7.25 C 541.292 27.035 473.348 55.779 418.379 144.057 C 368.846 223.605 304.186 193.141 279.76 156.494 C 249.813 111.563 238.862 66.8 155.732 -3.114 C 92.501 -56.293 112.298 -112.473 155.732 -152.358 C 209.879 -202.078 351.162 -214.299 430.539 -204.178 L 430.539 -204.178 L 430.539 -204.178 L 430.539 -204.178 L 430.539 -204.178 L 430.539 -204.178 L 430.539 -204.178 Z  M 612.932 185.513 C 709.78 159.794 772.155 48.554 965.559 92.236 C 1023.56 105.336 1074.829 213.601 1002.038 253.916 C 929.247 294.232 855.776 281.159 792.894 322.32 C 735.213 360.075 627.925 481.652 586.181 568.986 C 550.513 643.608 489.394 670.693 435.402 637.389 C 373.794 599.388 368.142 530.104 377.036 473.636 C 386.356 414.468 471.544 223.06 612.932 185.513 L 612.932 185.513 L 612.932 185.513 L 612.932 185.513 Z  M -216.35 703.72 C -94.148 881.071 33.81 914.443 255.441 859.182 C 1164.983 689.992 417.624 468.31 1507.876 289.155 C 2089.056 193.652 1497.192 -571.084 921.785 -568.996 C 345.443 -566.904 -10.293 -337.691 -216.35 171.003 C -275.681 307.898 -306.331 573.132 -216.35 703.72 L -216.35 703.72 L -216.35 703.72 L -216.35 703.72 L -216.35 703.72 L -216.35 703.72 L -216.35 703.72 Z  M 586.181 -436.335 C 877.771 -474.178 1110.11 -440.879 1284.14 -324.402 C 1500.444 -179.632 1636.652 -33.252 1575.97 71.508 C 1534.449 143.187 1440.593 193.114 1352.234 148.202 C 1292.621 117.903 1155.636 35.066 938.808 -112.974 C 758.038 -236.396 643.997 -269.906 520.519 -309.892 C 442.512 -335.154 457.193 -419.594 586.181 -436.335 Z " fill-rule="evenodd" fill="rgb(37,121,255)"/></g></g></svg>